# xmcd
#
# Track frame offsets: 
#        150
#        11503
#        23447
#        35580
#        47030
#        64532
#        78626
#        92968
#        111629
#        124251
#        135971
#        148175
#        166282
#        182668
#        190831
#        202848
#        219271
#        233970
#        246546
#        261996
#        278795
#        295317
#        310576
#        322076
#        333106
#
# Disc length: 4647 seconds
#
# Revision: 4
# Processed by: cddbd v1.5.1PL2 Copyright (c) Steve Scherf et al.
# Submitted via: ExactAudioCopy v0.95b2
#
DISCID=70122519
DTITLE=Various Artist - 25 Blues Masters - Volume 1
DYEAR=2001
DGENRE=Blues
TTITLE0=John Lee Hooker - Boom Boom
TTITLE1=Lightnin' Hopkins - Lightnin's Stomp
TTITLE2=Ray Charles - Cc Rider
TTITLE3=Canned Heat - Can't Hold On
TTITLE4=Howlin' Wolf - Dust My Broom
TTITLE5=Mississippi John Hurt - Casey Jones
TTITLE6=Leadbelly - The Boll Weevil
TTITLE7=Pinetops Perkins - Kidney Stew
TTITLE8=Jimmy Reed - Honest I Do
TTITLE9=Lightnin' Slim - G.I. Blues
TTITLE10=Memphis Slim - Wish Me Well
TTITLE11=Big Joe Turner - Chains of Love
TTITLE12=Muddy Waters - Corrina Corrina
TTITLE13=Billie Holiday - Miss Brown To You
TTITLE14=Big Joe Williams - Sugar Mama
TTITLE15=John Lee Hooker - Process
TTITLE16=Lightnin' Hopkins - Santa Fe Blues
TTITLE17=Ray Charles - Rockin' Chair Blues
TTITLE18=Howlin' Wolf - Goin' Down Slow
TTITLE19=Mississippi John Hurt - My Creole Belle
TTITLE20=Leadbelly - John Hardy
TTITLE21=Pinetops Perkins - Yonders Wall
TTITLE22=Jimmy Reed - I'm Nervous
TTITLE23=Lightnin' Slim - My Babe
TTITLE24=Big Joe Turner - Jump For Joy
EXTD=YEAR: 2001 ID3G:   0
EXTT0=
EXTT1=
EXTT2=
EXTT3=
EXTT4=
EXTT5=
EXTT6=
EXTT7=
EXTT8=
EXTT9=
EXTT10=
EXTT11=
EXTT12=
EXTT13=
EXTT14=
EXTT15=
EXTT16=
EXTT17=
EXTT18=
EXTT19=
EXTT20=
EXTT21=
EXTT22=
EXTT23=
EXTT24=
PLAYORDER=
